<?xml version="1.0" encoding="utf-8"?>
<!-- Generator: Adobe Illustrator 24.1.0, SVG Export Plug-In . SVG Version: 6.00 Build 0)  -->
<svg version="1.1" id="Layer_1" xmlns="http://www.w3.org/2000/svg" xmlns:xlink="http://www.w3.org/1999/xlink" x="0px" y="0px"
	 viewBox="0 0 612 792" style="enable-background:new 0 0 612 792;" xml:space="preserve">
<style type="text/css">
	.st0{fill:none;stroke:#231F20;stroke-width:5;stroke-miterlimit:10;}
	.st1{fill:#FFFFFF;stroke:#231F20;stroke-width:5;stroke-miterlimit:10;}
	.st2{fill:#231F20;}
</style>
<path class="st0" d="M394.4,424.8H87.3c-14,0-25.4-11.4-25.4-25.4V238.6c0-14,11.4-25.4,25.4-25.4h307.2c14,0,25.4,11.4,25.4,25.4
	v160.9C419.8,413.4,408.4,424.8,394.4,424.8z"/>
<path class="st1" d="M438.3,468.7H131.2c-14,0-25.4-11.4-25.4-25.4V282.5c0-14,11.4-25.4,25.4-25.4h307.2c14,0,25.4,11.4,25.4,25.4
	v160.9C463.7,457.3,452.3,468.7,438.3,468.7z"/>
<rect x="105.8" y="314.5" class="st2" width="357.9" height="39"/>
<rect x="180" y="370.3" class="st0" width="209.4" height="39"/>
<line class="st0" x1="136.3" y1="445.5" x2="234.2" y2="445.5"/>
</svg>
