<svg id="Layer_1" data-name="Layer 1" xmlns="http://www.w3.org/2000/svg" viewBox="0 0 281.44 146.02"><defs><style>.cls-1,.cls-2{fill:#fff;}.cls-2{font-size:51.39px;letter-spacing:-0.04em;}.cls-2,.cls-4{font-family:ProximaNova-Regular, Proxima Nova;}.cls-3{letter-spacing:-0.05em;}.cls-4{font-size:86.4px;fill:#86c665;}</style></defs><circle class="cls-1" cx="71.67" cy="134.61" r="11.41"/><circle class="cls-1" cx="135.51" cy="134.61" r="11.41"/><path class="cls-1" d="M477.56,274.58H373.76L373,264.31h-1.94a2,2,0,0,1-2-1.91l-3.87-59.52a2.12,2.12,0,0,1,.55-1.53,2.06,2.06,0,0,1,1.49-.64h1.15l-1.9-25.89A2,2,0,0,0,365,173l-43.34-12.37a2,2,0,0,0-1.11,3.88l42,12,7.34,100.23a2,2,0,0,0,2,1.87H477.56a2,2,0,0,0,0-4Z" transform="translate(-319.08 -160.58)"/><path class="cls-1" d="M467.69,271.84a2,2,0,0,0,0-4.08H373l-3.6-55.44h31.49v-4.08H368.35l4.66,63.6Z" transform="translate(-319.08 -160.58)"/><path class="cls-1" d="M365.71,201.35a2.12,2.12,0,0,0-.55,1.53L369,262.4a2,2,0,0,0,2,1.91H373l-4.66-63.6H367.2A2.06,2.06,0,0,0,365.71,201.35Z" transform="translate(-319.08 -160.58)"/><text class="cls-2" transform="translate(131.54 93) scale(1.01 1)">asy<tspan class="cls-3" x="70.76" y="0">P</tspan><tspan x="98.1" y="0">ay</tspan></text><text class="cls-4" transform="translate(82.17 94.43) scale(1.01 1)">E</text><path class="cls-1" d="M484,208.24h-37v4.08h37a2.06,2.06,0,0,0,0-4.08Z" transform="translate(-319.08 -160.58)"/></svg>